<?xml version="1.0" encoding="UTF-8" standalone="no"?>
<!-- Created with Inkscape (http://www.inkscape.org/) -->
<svg xmlns="http://www.w3.org/2000/svg" height="297mm" width="210mm" version="1.1">
 <path d="m265.51 513.1c-4.6095-1.2333-9.5495-4.2852-12.853-7.9404-9.7248-10.761-9.2943-26.414 1.0084-36.668 5.8704-5.8429 14.505-8.9372 21.532-7.716 2.9285 0.50899 3.125 0.66012 3.125 2.4036v1.8605l-6.0131 0.35341c-7.4364 0.43707-11.676 2.3438-16.187 7.2798-4.2302 4.6286-5.7859 9.013-5.4968 15.492 0.38338 8.5916 4.8539 15.451 12.385 19.004 2.9474 1.3902 4.2841 1.6214 9.375 1.6214s6.4276-0.2312 9.375-1.6214c4.3934-2.0723 8.5069-6.1918 10.551-10.566 1.2416-2.6573 1.6806-4.7851 1.934-9.375l0.32777-5.9375h1.875c1.7791 0 1.904 0.17107 2.4422 3.3448 0.37549 2.2141 0.32815 4.6305-0.14003 7.148-2.8753 15.461-18.258 25.326-33.24 21.318zm3.4375-9.5528c-4.8955-1.2693-8.7048-4.7157-9.4188-8.5214-0.77388-4.1252-1.0163-4.0488 12.856-4.0488 13.873 0 13.63-0.0763 12.856 4.0488-1.0924 5.8231-9.5802 10.262-16.294 8.5214zm-8.0407-19.491c-3.4556-2.7182-1.4378-8.0796 3.0407-8.0796 2.8539 0 4.6875 1.8158 4.6875 4.6421 0 2.422-2.2887 4.7329-4.6875 4.7329-0.76666 0-2.135-0.58291-3.0407-1.2954zm16.875 0c-3.4556-2.7182-1.4378-8.0796 3.0407-8.0796 2.8539 0 4.6875 1.8158 4.6875 4.6421 0 2.422-2.2887 4.7329-4.6875 4.7329-0.76666 0-2.135-0.58291-3.0407-1.2954zm15.967-9.5048c-0.36526-0.4401-0.75125-2.3385-0.85778-4.2188l-0.19367-3.4186-3.5418-0.18589c-4.0573-0.21294-5.3709-1.1959-4.2921-3.2117 0.57903-1.0819 1.2915-1.29 4.4184-1.29h3.728v-3.7189c0-4.0707 1.0785-5.5013 3.2651-4.3311 0.87275 0.46709 1.1099 1.3905 1.1099 4.322v3.728h3.6735c2.5892 0 3.916 0.29217 4.495 0.98989 1.4784 1.7813-0.0689 3.0375-4.1697 3.3851l-3.6863 0.3125-0.19367 3.4186c-0.19737 3.4838-0.90282 5.019-2.3063 5.019-0.43144 0-1.0833-0.36009-1.4486-0.8002z"/>
</svg>
