<?xml version="1.0" encoding="UTF-8" ?>
<!DOCTYPE svg PUBLIC "-//W3C//DTD SVG 1.1//EN" "http://www.w3.org/Graphics/SVG/1.1/DTD/svg11.dtd">
<svg width="98pt" height="98pt" viewBox="0 0 98 98" version="1.1" xmlns="http://www.w3.org/2000/svg">
<!-- <path fill="#ffffff" d=" M 0.00 0.00 L 98.00 0.00 L 98.00 98.00 L 0.00 98.00 L 0.00 0.00 Z" /> -->
<path fill="#ab9ba9" fill-opacity="0.5" d=" M 41.28 8.20 C 47.18 4.96 55.28 5.17 60.58 9.49 C 63.88 12.22 64.70 16.63 65.18 20.65 C 70.81 24.51 75.29 30.06 77.32 36.62 C 79.44 42.85 79.86 49.47 80.03 56.00 C 83.29 59.69 87.87 62.53 89.66 67.29 C 91.07 71.19 87.78 75.17 83.91 75.62 C 77.22 76.45 70.45 75.79 63.72 76.00 C 61.58 84.13 51.79 88.08 44.34 84.74 C 40.54 83.29 38.32 79.68 36.99 76.02 C 30.97 75.90 24.93 76.13 18.91 75.94 C 16.09 75.86 12.92 75.22 11.16 72.80 C 9.38 70.38 9.94 66.98 11.67 64.70 C 14.07 61.47 17.24 58.93 19.97 55.99 C 20.14 47.10 21.17 37.76 26.09 30.11 C 28.32 26.46 31.58 23.65 34.86 20.99 C 35.21 16.13 36.73 10.74 41.28 8.20 Z" />
<path fill="#4D394B" d=" M 45.05 15.09 C 47.89 13.04 52.15 13.04 54.98 15.12 C 57.75 17.31 57.33 21.20 57.69 24.35 C 61.02 26.60 64.50 28.90 66.69 32.37 C 71.71 39.86 72.23 49.19 72.52 57.92 C 72.33 59.70 73.99 60.71 75.09 61.81 C 77.50 63.79 79.86 65.84 81.92 68.20 C 73.72 68.95 65.48 68.10 57.27 68.68 C 57.08 71.13 57.71 74.00 55.97 76.03 C 53.33 78.95 48.22 79.29 45.23 76.74 C 42.96 74.68 43.54 71.36 43.35 68.63 C 35.01 68.20 26.64 68.86 18.31 68.24 C 20.85 64.81 24.74 62.68 27.21 59.23 C 28.00 51.30 27.85 42.94 31.63 35.66 C 33.82 30.78 38.01 27.30 42.32 24.34 C 42.66 21.18 42.25 17.28 45.05 15.09 Z" />
</svg>
