<?xml version="1.0" encoding="UTF-8" standalone="no"?>
<!-- Created with Inkscape (http://www.inkscape.org/) -->
<svg xmlns="http://www.w3.org/2000/svg" height="87.5" viewBox="0 0 87.5 87.5" width="87.5" version="1.1">
 <g transform="translate(.91625 -1.8325)">
  <path style="fill:#f6c86e" d="m34.751 81.504c-10.141-2.454-19.385-9.794-24.213-19.227-10.531-20.575-0.441-45.115 21.65-52.655 4.1982-1.4328 6.0524-1.7065 11.562-1.7065 5.5101 0 7.3643 0.27365 11.562 1.7065 18.793 6.414 29.507 25.597 24.731 44.274-4.433 17.33-19.006 28.693-36.605 28.543-2.75-0.02356-6.6591-0.44427-8.6868-0.93491z"/>
  <path style="fill:#c29b88" d="m34.751 81.504c-10.141-2.454-19.385-9.794-24.213-19.227-10.531-20.575-0.441-45.115 21.65-52.655 4.1982-1.4328 6.0524-1.7065 11.562-1.7065 5.5101 0 7.3643 0.27365 11.562 1.7065 18.793 6.414 29.507 25.597 24.731 44.274-4.433 17.33-19.006 28.693-36.605 28.543-2.75-0.02356-6.6591-0.44427-8.6868-0.93491zm16.417-6.7868c12.082-3.2159 20.99-13.227 22.772-25.593 2.056-14.271-6.9994-28.524-20.972-33.009-5.2771-1.6939-13.158-1.6939-18.435 0-13.973 4.485-23.029 18.737-20.973 33.009 2.595 18.014 20.445 30.161 37.608 25.593zm-16.67-8.504c-4.24-2.119-7.126-5.271-8.568-9.36-1.214-3.44-1.176-4.107 0.32-5.603 1.186-1.186 2.083-1.25 17.5-1.25s16.314 0.0641 17.5 1.25c1.4958 1.4958 1.534 2.163 0.32031 5.6029-1.4427 4.089-4.3282 7.2411-8.5681 9.3598-3.3866 1.6923-4.451 1.9123-9.2522 1.9123s-5.8656-0.22-9.2522-1.9123zm-6.238-24.688c-3.601-2.523-4.029-7.189-0.952-10.401 4.287-4.475 11.442-1.534 11.442 4.703 0 3.446-3.227 6.673-6.673 6.673-1.3329 0-3.0501-0.43895-3.8161-0.97544zm22.615-1.15c-3.5292-3.5292-2.7358-8.4325 1.7389-10.746 5.3777-2.7809 11.792 3.6222 9.013 8.9969-1.367 2.644-3.337 3.874-6.204 3.874-1.922 0-2.862-0.439-4.548-2.125z"/>
 </g>
</svg>
