<?xml version="1.0" encoding="UTF-8" standalone="no"?>
<!-- Created with Inkscape (http://www.inkscape.org/) -->
<svg xmlns="http://www.w3.org/2000/svg" height="16" viewBox="0 0 100 100" width="16" version="1.1" fill="#F8CF34">
 <path d="m27.959 85.496c-4.1182-1.6654-3.3414-11.8 1.9253-25.119 0.3093-0.78219-0.56663-1.7013-3.5413-3.7157-4.8648-3.2945-10.325-8.3776-11.556-10.758-1.2946-2.5034-1.2289-5.1985 0.16473-6.7627 2.2512-2.5266 5.0953-3.2225 14.415-3.5269l8.8512-0.28911 0.42181-2.2667c1.7783-9.5562 7.4386-18.829 11.493-18.829 1.6991 0 4.8067 2.7579 6.5887 5.8471 1.4415 2.499 4.2783 10.228 4.9929 13.604l0.34684 1.6384 8.602 0.28364c11.658 0.3844 15.79 2.1902 15.79 6.9012 0 3.5248-5.1728 9.1893-13.259 14.519l-3.5714 2.3541 1.0035 2.2701c2.1162 4.7876 4.0144 12.405 4.0937 16.428 0.13536 6.8684-2.406 9.0391-8.2932 7.0837-3.7856-1.2574-10.097-5.2624-13.538-8.5904l-2.6267-2.5407-3.3108 2.8002c-5.044 4.2662-9.0063 6.7866-12.722 8.0924-3.6981 1.2998-4.3381 1.3586-6.2711 0.57694z"/>
</svg>
