<?xml version="1.0" encoding="UTF-8" standalone="no"?>
<!-- Created with Inkscape (http://www.inkscape.org/) -->
<svg xmlns="http://www.w3.org/2000/svg" viewBox="0 0 125 125" version="1.1" height="125"  width="125">
 <path d="m56.562 118c-4.751-1.6607-7.7568-5.2469-9.4661-11.294-0.56134-1.9859-1.2515-3.7534-1.5337-3.9278-0.28218-0.1744-2.2355 0.55243-4.3408 1.6152-6.9328 3.4996-12.796 3.0316-17.874-1.4267-5.9119-5.1907-7.1772-12.089-3.5042-19.102 1.1172-2.1332 2.0312-4.2518 2.0312-4.7079 0-0.47268-1.6446-1.3273-3.8236-1.9871-5.309-1.612-8.2017-3.89-10.25-8.077-1.5307-3.128-1.6803-3.999-1.4101-8.209 0.25128-3.9154 0.61155-5.15 2.1356-7.3185 2.3491-3.3423 5.076-5.1579 9.6925-6.4532 2.0299-0.56957 3.8249-1.2525 3.9887-1.5176 0.16385-0.26511-0.68753-2.5383-1.892-5.0515-2.6448-5.5187-2.8239-8.8419-0.72029-13.359 2.6665-5.7261 7.9627-9.2896 13.88-9.3389 3.0976-0.02582 4.4928 0.33813 7.6654 1.9997 2.1332 1.1172 4.2518 2.0312 4.7079 2.0312 0.47267 0 1.3273-1.6446 1.9871-3.8236 1.6432-5.4271 4.0483-8.4631 8.2157-10.371 3.0058-1.3761 4.0796-1.5463 8.1201-1.287 3.8581 0.2476 5.1034 0.61309 7.2648 2.1322 3.3423 2.3491 5.1579 5.076 6.4532 9.6925 0.56958 2.0299 1.2525 3.8249 1.5176 3.9887 0.26511 0.16385 2.5383-0.68753 5.0515-1.892 5.5187-2.6448 8.8419-2.8239 13.359-0.72029 5.7321 2.6693 9.3034 7.9754 9.3442 13.883 0.0214 3.0959-0.34594 4.5003-2.005 7.6654-1.1172 2.1313-2.0312 4.2483-2.0312 4.7045 0 0.47267 1.6446 1.3273 3.8236 1.9871 7.7158 2.3362 11.783 7.4141 11.795 14.728 0.0143 8.1876-3.7639 13.001-12.042 15.341-1.9859 0.56134-3.7534 1.2515-3.9278 1.5337-0.1744 0.28218 0.55243 2.2355 1.6152 4.3408 3.4996 6.9328 3.0316 12.796-1.4267 17.874-5.1907 5.9119-12.089 7.1772-19.102 3.5042-2.1332-1.1172-4.2518-2.0312-4.7079-2.0312-0.47268 0-1.3273 1.6446-1.9871 3.8236-1.572 5.1921-3.8773 8.172-7.8557 10.154-3.5858 1.7869-9.087 2.1722-12.747 0.89284zm9.9787-9.4803c0.81639-0.81639 2.0752-3.4683 2.7973-5.8931 1.5113-5.0746 3.3078-6.9761 7.7718-8.226 2.8202-0.78961 2.9954-0.75171 8.31 1.7984 6.3173 3.0312 7.8998 2.9839 10.803-0.32318 2.439-2.781 2.393-4.307-0.285-9.626-2.417-4.799-2.693-7.187-1.177-10.187 1.767-3.498 3.395-4.721 8.169-6.139 5.56-1.651 7.07-3.192 7.07-7.224 0-3.6037-1.6212-5.2225-7.0347-7.024-5.5333-1.8414-7.0801-3.1781-8.3541-7.2197l-1.0607-3.365 2.6248-5.4702c3.0524-6.3613 3.0083-7.937-0.3034-10.845-2.777-2.438-4.303-2.392-9.622 0.286-4.799 2.417-7.187 2.693-10.187 1.177-3.498-1.767-4.721-3.395-6.139-8.171-1.651-5.56-3.192-7.068-7.224-7.068-3.6037 0-5.2225 1.6212-7.024 7.0347-1.8414 5.5333-3.1781 7.0801-7.2197 8.3541l-3.365 1.0607-5.4702-2.6248c-6.3613-3.0524-7.937-3.0083-10.845 0.3034-2.4379 2.7767-2.3925 4.3024 0.2863 9.6218 2.4168 4.799 2.6927 7.1873 1.1769 10.187-1.7671 3.4974-3.3959 4.721-8.1714 6.1387-5.559 1.651-7.067 3.192-7.067 7.224 0 3.6912 1.7525 5.3631 7.3774 7.0383 5.0746 1.5113 6.9761 3.3078 8.226 7.7718 0.78962 2.8202 0.75171 2.9954-1.7984 8.31-3.0312 6.3173-2.9839 7.8998 0.32317 10.803 2.7767 2.4379 4.3024 2.3926 9.6218-0.28631 4.799-2.4168 7.1873-2.6927 10.187-1.1769 3.4974 1.7671 4.721 3.3959 6.1387 8.1714 1.6505 5.5597 3.1921 7.068 7.2242 7.068 2.0684 0 3.1272-0.37061 4.241-1.4844zm-9.207-24.786c-6.183-1.56-11.941-6.397-14.714-12.361-1.381-2.971-1.655-4.44-1.655-8.873 0-6.5035 1.7818-10.904 6.2065-15.329 4.4247-4.4247 8.8255-6.2065 15.329-6.2065s10.904 1.7818 15.329 6.2065c4.4247 4.4247 6.2065 8.8255 6.2065 15.329 0 4.4333-0.27396 5.9017-1.6553 8.8728-2.0911 4.4976-6.4675 8.9035-10.826 10.899-3.8013 1.7403-10.421 2.4211-14.22 1.4626zm10.854-10.474c2.6967-1.4088 3.6626-2.3747 5.0714-5.0714 2.2229-4.255 2.2229-7.1218 0-11.377-1.4088-2.6967-2.3747-3.6626-5.0714-5.0714-4.255-2.2229-7.1218-2.2229-11.377 0-2.6967 1.4088-3.6626 2.3747-5.0714 5.0714-2.2229 4.255-2.2229 7.1218 0 11.377 1.4088 2.6967 2.3747 3.6626 5.0714 5.0714 4.255 2.2229 7.1218 2.2229 11.377 0z"/>
</svg>
