<?xml version="1.0" encoding="UTF-8" standalone="no"?>
<!-- Created with Inkscape (http://www.inkscape.org/) -->
<svg xmlns="http://www.w3.org/2000/svg" height="297mm" width="210mm" version="1.1" viewBox="0 0 744.09448819 1052.3622047">
 <path d="m353.84 498.9c-2.2659-1.3816-3.6564-3.2803-4.2908-5.8592-0.55753-2.2663-1.5682-2.6259-3.937-1.401-4.5285 2.3418-10.271 0.52706-12.68-4.0075-1.4897-2.8033-1.4637-5.0839 0.0927-8.1348 0.6875-1.3476 1.25-2.6178 1.25-2.8227s-1.2029-0.90465-2.6731-1.555c-4.3228-1.9122-6.7019-5.1247-6.7019-9.0497 0-4.135 2.9846-7.9056 6.9466-8.7758 2.381-0.52295 2.7806-1.5529 1.5361-3.9593-2.3418-4.5285-0.52706-10.271 4.0075-12.68 2.8033-1.4897 5.0839-1.4637 8.1348 0.0927 1.3476 0.6875 2.6178 1.25 2.8227 1.25s0.90168-1.1962 1.5484-2.6582c2.2704-5.1326 6.7589-7.6668 11.48-6.4817 2.5267 0.63417 5.322 3.4274 6.1306 6.126 0.90656 3.0258 1.6764 3.4165 4.1804 2.1216 4.5285-2.3418 10.271-0.52706 12.68 4.0075 1.4897 2.8033 1.4637 5.0839-0.0927 8.1348-0.6875 1.3476-1.25 2.6178-1.25 2.8228 0 0.20489 1.1962 0.90167 2.6582 1.5484 5.1326 2.2704 7.6668 6.7589 6.4817 11.48-0.63417 2.5267-3.4274 5.322-6.126 6.1306-3.0258 0.90656-3.4165 1.6764-2.1216 4.1804 2.3418 4.5285 0.52706 10.271-4.0075 12.68-2.8033 1.4897-5.0839 1.4637-8.1348-0.0927-1.3476-0.6875-2.6178-1.25-2.8228-1.25-0.20489 0-0.90464 1.2029-1.555 2.6731-2.6744 6.0459-8.6602 8.4652-13.557 5.4794zm6.8428-5.0176c0.8671-0.68207 1.7678-2.018 2.0016-2.9688 0.68963-2.8046 2.0283-4.3824 4.3752-5.157 1.911-0.63069 2.5633-0.54798 4.9059 0.62195 3.4374 1.7167 6.0346 1.4643 7.2461-0.70411 0.82801-1.4821 0.78588-1.9327-0.44904-4.8034-0.74952-1.7423-1.3628-3.7328-1.3628-4.4234 0-1.9265 2.5984-4.5164 5.6693-5.6507 3.7047-1.3684 5.016-3.8335 3.2778-6.1617-0.65442-0.87653-2.2729-1.9686-3.5966-2.4269-3.1628-1.095-3.8974-1.7641-4.7402-4.3179-0.60191-1.8238-0.50857-2.5224 0.64576-4.8338 1.7167-3.4374 1.4643-6.0346-0.70411-7.2461-1.4821-0.82801-1.9327-0.78588-4.8034 0.44904-1.7423 0.74952-3.7328 1.3628-4.4234 1.3628-1.9265 0-4.5164-2.5984-5.6507-5.6693-1.3684-3.7047-3.8335-5.016-6.1617-3.2778-0.87653 0.65442-1.9686 2.2729-2.4269 3.5966-1.095 3.1628-1.7641 3.8974-4.3179 4.7402-1.8238 0.60191-2.5224 0.50857-4.8338-0.64576-3.4374-1.7167-6.0346-1.4643-7.2461 0.70411-0.82801 1.4821-0.78588 1.9327 0.44904 4.8034 0.74952 1.7423 1.3628 3.7328 1.3628 4.4234 0 1.9265-2.5984 4.5164-5.6693 5.6507-3.7047 1.3684-5.016 3.8335-3.2778 6.1617 0.65442 0.87653 2.2729 1.9686 3.5966 2.4269 3.1628 1.095 3.8974 1.7641 4.7402 4.3179 0.60191 1.8238 0.50857 2.5224-0.64576 4.8338-1.7167 3.4374-1.4643 6.0346 0.70411 7.2461 1.4821 0.82801 1.9327 0.78588 4.8034-0.44904 1.7423-0.74952 3.7328-1.3628 4.4234-1.3628 1.924 0 4.5159 2.597 5.6464 5.6575 0.6113 1.6548 1.6373 3.0697 2.5673 3.5403 2.0142 1.0191 2.0469 1.0154 3.8945-0.4379zm-6.298-15.06c-3.0509-0.93224-7.3861-5.5477-8.2603-8.7944-1.5246-5.6618 0.72186-11.406 5.7663-14.744 2.1878-1.4478 3.2708-1.7241 6.7591-1.7241 3.4882 0 4.5712 0.27625 6.7591 1.7241 1.4329 0.94824 3.3811 2.8964 4.3294 4.3294 1.4478 2.1878 1.7241 3.2708 1.7241 6.7591 0 3.4882-0.27625 4.5712-1.7241 6.7591-3.347 5.0577-9.7088 7.4158-15.353 5.691zm9.5192-7.4158c1.6416-1.6416 1.9334-2.4013 1.9334-5.0343 0-2.6689-0.28467-3.3856-2.0433-5.1442s-2.4753-2.0433-5.1442-2.0433-3.3856 0.28467-5.1442 2.0433c-1.7517 1.7517-2.0433 2.4803-2.0433 5.1059 0 3.2128 1.593 5.7522 4.375 6.974 2.3368 1.0264 6.003 0.16222 8.0666-1.9014z"/>
</svg>
