<?xml version="1.0" encoding="UTF-8" standalone="no"?>
<!-- Created with Inkscape (http://www.inkscape.org/) -->
<svg xmlns="http://www.w3.org/2000/svg" height="87.5" viewBox="0 0 87.5 87.5" width="87.5" version="1.1">
 <path style="fill:#d9d9d9" d="m37.568 71.199c-11.527-2.264-21.5-12.914-23.363-24.949-3.019-19.503 14.417-36.939 33.92-33.92 16.21 2.509 27.646 17.921 25.17 33.92-0.997 6.439-3.781 11.852-8.55 16.62-7.363 7.364-17.021 10.323-27.177 8.329zm13.226-6.2c9.923-3.065 17.331-12.95 17.331-23.124s-7.4084-20.059-17.331-23.124c-5.1241-1.5827-8.9642-1.5827-14.088 0-9.923 3.065-17.331 12.95-17.331 23.124 0 1.6463 0.56303 4.8162 1.2512 7.0442 2.3217 7.5168 7.9947 13.313 15.55 15.889 5.1396 1.752 9.3842 1.8074 14.618 0.19096zm-11.732-6.82c-5.5779-1.5506-10.471-5.5399-11.659-9.5055-0.63162-2.1082-0.57635-2.5847 0.4286-3.6951 1.6047-1.7732 2.6895-1.3597 4.976 1.8964 3.8583 5.4946 8.9316 7.3091 15.047 5.3814 3.1898-1.0055 4.8782-2.4682 7.9559-6.8923 1.3401-1.9264 2.3651-2.0348 3.8391-0.40616 2.4072 2.66-1.3582 8.6698-7.3272 11.695-3.3401 1.6926-9.9327 2.4516-13.26 1.5267zm-7.187-18.962c-3.2687-1.7064-3.892-6.5131-1.1647-8.9814 1.8237-1.6504 5.7838-1.5189 7.5535 0.25085 1.8329 1.8329 1.916 5.8618 0.15724 7.6205-1.6254 1.6254-4.5944 2.1289-6.5461 1.11zm18.75 0c-3.2687-1.7064-3.892-6.5131-1.1647-8.9814 1.8237-1.6504 5.7838-1.5189 7.5535 0.25085 1.8329 1.8329 1.916 5.8618 0.15724 7.6205-1.6254 1.6254-4.5944 2.1289-6.5461 1.11z"/>
</svg>
