<svg fill="#3aa3e3" xmlns="http://www.w3.org/2000/svg" height="13" viewBox="0 0 65 65" width="13" version="1.1">
 <path d="m6.1503 60.088c-0.63377-0.3684-1.5532-1.6294-2.0433-2.8022-0.84629-2.0254-0.74932-2.544 1.9336-10.341 1.5535-4.5145 2.8245-8.3654 2.8245-8.5574 0-0.73952 32.277-32.731 33.875-33.575 2.1591-1.1406 5.7134-1.1413 7.8746-0.00153 0.92824 0.48955 3.2894 2.5286 5.2471 4.5313 5.4026 5.5268 6.1244 8.6568 3.0813 13.363-0.98826 1.5282-8.6523 9.5286-17.031 17.779l-15.234 15-7.9045 2.6562c-8.119 2.728-10.619 3.114-12.624 1.948zm11.778-7.488c2.9214-1.0571 5.3117-2.1139 5.3117-2.3484 0-0.23452-1.9655-2.3768-4.3677-4.7607-2.9272-2.9047-4.575-4.127-4.996-3.7059-0.71681 0.71681-4.3862 11.286-4.3862 12.634 0 1.0772 1.0762 0.8452 8.4383-1.8187zm19.542-15.721 9.5274-9.5423-5.0071-4.9777-5.0071-4.9777-9.3716 9.3559c-5.1544 5.1458-9.3716 9.6341-9.3716 9.9741 0 0.63146 8.7578 9.71 9.3669 9.71 0.18464 0 4.623-4.294 9.8631-9.5423zm15.584-15.581c3.003-2.91 2.751-4.551-1.319-8.57-4.092-4.0413-5.745-4.275-8.863-1.253l-2.1516 2.0855 4.8391 4.8677c2.6615 2.6772 4.973 4.8677 5.1365 4.8677 0.16357 0 1.2249-0.89892 2.3584-1.9976z"/>
</svg>
