<?xml version="1.0" encoding="UTF-8" standalone="no"?>
<!-- Created with Inkscape (http://www.inkscape.org/) -->
<svg xmlns="http://www.w3.org/2000/svg" height="80" viewBox="0 0 93.75 80" width="93.75" version="1.1">
 <path d="m22.574 64.019c-6.764-3.51-9.547-11.074-6.526-17.733 1.688-3.72 13.779-15.811 17.499-17.499 5.2891-2.3994 12.462-1.0583 15.587 2.9142 1.5854 2.0155 1.629 4.3449 0.09048 4.8332-1.2941 0.41072-3.213-0.142-3.213-0.92545 0-1.2361-4.338-3.1091-7.201-3.1091-2.9706 0-3.0395 0.04778-10.136 7.0312-3.9297 3.8672-7.5427 7.7907-8.029 8.719-2.4565 4.689 0.92811 11.359 5.9908 11.806 3.9526 0.34905 5.1185-0.09769 8.4311-3.2306 3.5294-3.3379 5.4682-3.8171 6.8065-1.6821 0.56104 0.89506 0.14166 1.63-2.4362 4.2692-1.7126 1.7534-4.1574 3.7278-5.4327 4.3876-2.8737 1.4865-8.771 1.5993-11.431 0.21864zm15.487-16.236c-3.5054-1.7468-5.3589-3.9827-5.0574-6.1009 0.31649-2.2238 2.8051-2.123 5.2133 0.21106 2.5104 2.4332 6.5706 3.153 9.4093 1.6682 2.8172-1.4736 15.104-14.284 15.601-16.266 1.1004-4.3841-1.4626-9.0369-5.7591-10.455-3.1169-1.0287-5.5855-0.1767-9.34 3.2234-3.4914 3.1618-5.1675 3.72-6.4673 2.1539-1.1683-1.4077-0.23798-3.1831 3.2934-6.2848 5.8164-5.1087 12.077-5.7607 18.011-1.8757 4.5895 3.0046 6.7702 10.525 4.5836 15.807-1.2645 3.0545-14.837 16.787-18.101 18.314-3.5486 1.6604-7.5406 1.5218-11.387-0.39514z"/>
</svg>
