<?xml version="1.0" encoding="UTF-8" ?>
<!DOCTYPE svg PUBLIC "-//W3C//DTD SVG 1.1//EN" "http://www.w3.org/Graphics/SVG/1.1/DTD/svg11.dtd">
<svg width="64pt" height="64pt" viewBox="0 0 64 64" version="1.1" xmlns="http://www.w3.org/2000/svg">
<!-- <path fill="#ffffff" fill-opacity="1" d=" M 0.00 0.00 L 64.00 0.00 L 64.00 64.00 L 0.00 64.00 L 0.00 0.00 Z" /> -->
<path fill="#ab9ba9" fill-opacity="0.5" d=" M 15.73 9.75 C 21.69 -0.05 38.31 -0.05 44.27 9.75 C 47.32 14.57 46.73 20.50 46.85 25.94 C 49.26 27.05 52.52 27.65 53.41 30.54 C 54.31 33.95 53.99 37.52 54.02 41.00 C 53.87 45.62 54.39 50.28 53.67 54.87 C 53.18 57.93 50.13 59.96 47.15 59.90 C 37.10 60.21 27.03 59.84 16.98 60.05 C 13.98 59.87 10.36 60.39 8.04 58.03 C 5.60 55.72 6.12 52.05 5.95 49.02 C 6.22 43.10 5.51 37.12 6.39 31.25 C 6.93 27.91 10.51 27.05 13.15 25.94 C 13.27 20.51 12.68 14.57 15.73 9.75 Z" />
<path fill="#4D394B" fill-opacity="1" d=" M 21.86 13.92 C 25.28 8.29 34.68 8.28 38.12 13.89 C 40.15 17.72 39.46 22.22 39.59 26.38 C 33.20 26.41 26.80 26.40 20.41 26.39 C 20.54 22.23 19.85 17.75 21.86 13.92 Z" />
</svg>
