<?xml version="1.0" encoding="UTF-8" standalone="no"?>
<!-- Created with Inkscape (http://www.inkscape.org/) -->
<svg fill="#2c2d30" xmlns="http://www.w3.org/2000/svg" height="19" viewBox="0 0 57.5 57.5" width="19" version="1.1">
 <path d="m44.041 44.384-6.4723-6.5022-3.6837 1.8998c-7.278 3.754-16.287 2.148-22.28-3.97-3.7879-3.867-5.3518-8.346-5.0065-14.338 0.3125-5.424 1.7813-8.805 5.3955-12.418 7.3809-7.3809 19.853-7.2798 27.136 0.22 3.8536 3.968 5.1341 7.326 5.1278 13.448-0.0047 4.5809-0.2457 5.7801-1.7502 8.7078l-1.7448 3.3953 6.3367 6.3584c5.0398 5.057 6.2935 6.6646 6.1252 7.8547-0.44245 3.1299-2.4447 2.115-9.1838-4.6553zm-12.424-8.3794c1.2947-0.50894 3.4249-2.1419 4.7337-3.6289 7.682-8.728 3.247-21.76-8.225-24.166-13.772-2.8885-23.207 14.808-13.184 24.728 4.5663 4.5194 10.299 5.5738 16.675 3.0672z"/>
</svg>
