<?xml version="1.0" encoding="UTF-8" standalone="no"?>
<!-- Created with Inkscape (http://www.inkscape.org/) -->
<svg xmlns="http://www.w3.org/2000/svg" height="80" viewBox="0 0 80 80" width="80" version="1.1">
 <path d="m19.583 69.64c-1.5268-1.5268-1.5948-1.8738-1.3168-6.7188 0.19271-3.358 0.87239-6.7152 1.9833-9.7963 2.7179-7.5378 2.8283-6.8796-1.6523-9.8469-8.446-5.594-12.665-11.43-10.921-15.109 1.3962-2.945 4.791-3.987 14.011-4.3l8.3083-0.28178 0.66231-2.5748c1.848-7.183 4.501-12.924 7.087-15.335 4.985-4.6473 10.5 1.3528 14.097 15.335l0.66231 2.5748 8.3083 0.28178c9.2203 0.31271 12.615 1.3547 14.012 4.3006 1.7439 3.6788-2.4749 9.515-10.922 15.109-4.4806 2.9672-4.3702 2.3091-1.6523 9.8469 1.1109 3.0811 1.7906 6.4382 1.9833 9.7963 0.27804 4.8449 0.21004 5.1919-1.3168 6.7188-0.886 0.885-2.182 1.609-2.882 1.609-3.521 0-10.761-4.024-16.129-8.964l-2.656-2.445-2.656 2.445c-5.368 4.94-12.608 8.964-16.129 8.964-0.69944 0-1.9962-0.72449-2.8817-1.61zm10.305-7.4196c2.0767-1.5288 5.345-4.2006 7.2629-5.9375 1.918-1.736 3.763-3.157 4.099-3.157 0.33647 0 2.181 1.4211 4.0989 3.1579 8.5551 7.7475 13.465 10.279 13.879 7.1546 0.09103-0.6875-1.1179-4.9062-2.6866-9.375s-2.9992-8.5685-3.1789-9.1107c-0.23367-0.70486 1.1549-1.9512 4.8741-4.375 5.883-3.833 10.514-7.829 10.514-9.071 0-1.7045-2.5502-2.1894-11.011-2.0935-4.6648 0.05286-8.7026-0.14463-8.9727-0.43887-0.27-0.295-1.397-3.672-2.504-7.505-2.014-6.972-3.803-10.843-5.012-10.843-1.2091 0-2.9983 3.8708-5.0121 10.843-1.1071 3.8331-2.234 7.2101-2.5041 7.5043-0.27016 0.29424-4.3079 0.49174-8.9727 0.43887-8.461-0.096-11.011 0.389-11.011 2.094 0 1.2424 4.6309 5.2384 10.513 9.072 3.73 2.4308 5.107 3.6681 4.869 4.375-0.18254 0.54211-1.6547 4.8119-3.2714 9.4883-1.6168 4.6765-2.7619 8.9655-2.5449 9.5312 0.65154 1.6979 2.5881 1.1819 6.5722-1.751z"/>
</svg>
