<?xml version="1.0" encoding="UTF-8" standalone="no"?>
<!-- Created with Inkscape (http://www.inkscape.org/) -->
<svg xmlns="http://www.w3.org/2000/svg" height="80" viewBox="0 0 80 80" width="80" version="1.1" >
 <path d="m36.781 67.036c-3.582-3.582-1.0884-9.6023 3.9773-9.6023s7.5593 6.0203 3.9773 9.6023c-2.2679 2.2679-5.6867 2.2679-7.9545 0zm0-23.75c-2.3111-2.3111-2.2409-5.3552 0.1792-7.7754 1.2469-1.2469 2.4528-1.8269 3.7981-1.8269 2.7839 0 5.625 2.9316 5.625 5.8042 0 4.8904-6.0979 7.3024-9.6023 3.7981zm1.6827-22.388c-3.8101-1.6574-4.5411-6.0994-1.5035-9.137 2.4563-2.4563 5.1399-2.4563 7.5962 0 3.0903 3.0903 2.2974 7.518-1.6408 9.1635-2.4868 1.0391-1.9954 1.042-4.4518-0.02651z"/>
</svg>
